<svg width="700" height="440" viewBox="0 0 700 440" role="img" xmlns="http://www.w3.org/2000/svg">
<title>Samuel Appiah Kubi — light logo transparent</title>
<defs>
  <clipPath id="gc"><circle cx="350" cy="210" r="90"/></clipPath>
  <radialGradient id="gbg" cx="38%" cy="35%" r="60%">
    <stop offset="0%" stop-color="#e2e8f0"/>
    <stop offset="100%" stop-color="#cbd5e1"/>
  </radialGradient>
  <path id="top-arc" d="M 254,210 A 96,96 0 0,1 446,210" fill="none"/>
  <path id="bot-arc" d="M 246,210 A 104,104 0 0,0 454,210" fill="none"/>
</defs>
<style>
  .arc-text { font-family: Arial, sans-serif; font-size: 12px; font-weight: 900; fill: #ea580c; letter-spacing: 4px; }
</style>

<!-- NO background rect — transparent -->
<circle cx="350" cy="210" r="100" fill="none" stroke="#ea580c" stroke-width="0.5" opacity="0.2"/>
<circle cx="350" cy="210" r="95"  fill="none" stroke="#ea580c" stroke-width="0.8" opacity="0.35"/>
<circle cx="350" cy="210" r="90"  fill="url(#gbg)" stroke="#ea580c" stroke-width="2"/>
<g clip-path="url(#gc)" fill="none" stroke="#ea580c" stroke-width="0.5" opacity="0.35">
  <ellipse cx="350" cy="210" rx="90" ry="22"/>
  <ellipse cx="350" cy="210" rx="90" ry="52"/>
  <ellipse cx="350" cy="210" rx="90" ry="76"/>
  <line x1="260" y1="210" x2="440" y2="210"/>
  <line x1="350" y1="120" x2="350" y2="300"/>
  <ellipse cx="350" cy="210" rx="40" ry="90" transform="rotate(45  350 210)"/>
  <ellipse cx="350" cy="210" rx="40" ry="90" transform="rotate(90  350 210)"/>
  <ellipse cx="350" cy="210" rx="40" ry="90" transform="rotate(135 350 210)"/>
</g>
<ellipse cx="326" cy="174" rx="20" ry="13" fill="#ffffff" opacity="0.6"/>
<ellipse cx="350" cy="210" rx="140" ry="42" fill="none" stroke="#ea580c" stroke-width="1.8" transform="rotate(-24 350 210)"/>
<g transform="translate(446 142) rotate(-24)">
  <rect x="-9" y="-6" width="18" height="12" rx="2.5" fill="#f1f5f9" stroke="#ea580c" stroke-width="1.6"/>
  <rect x="-26" y="-4" width="15" height="8" rx="2" fill="#ea580c" opacity="0.95"/>
  <line x1="-11" y1="0" x2="-26" y2="0" stroke="#ea580c" stroke-width="1"/>
  <rect x="11"  y="-4" width="15" height="8" rx="2" fill="#ea580c" opacity="0.95"/>
  <line x1="11" y1="0" x2="26"  y2="0" stroke="#ea580c" stroke-width="1"/>
  <line x1="0"  y1="-6" x2="0"  y2="-15" stroke="#ea580c" stroke-width="1.1"/>
  <circle cx="0" cy="-16" r="2.2" fill="#ea580c"/>
</g>
<line x1="438" y1="150" x2="354" y2="208" stroke="#ea580c" stroke-width="0.8" stroke-dasharray="3 3" opacity="0.5"/>
<circle cx="354" cy="208" r="5"  fill="#ea580c"/>
<circle cx="354" cy="208" r="11" fill="none" stroke="#ea580c" stroke-width="1.1" opacity="0.45"/>
<circle cx="354" cy="208" r="18" fill="none" stroke="#ea580c" stroke-width="0.6" opacity="0.22"/>
<g stroke="#ea580c" stroke-width="1.2" opacity="0.5">
  <line x1="238" y1="103" x2="252" y2="103"/><line x1="238" y1="103" x2="238" y2="117"/>
  <line x1="462" y1="103" x2="448" y2="103"/><line x1="462" y1="103" x2="462" y2="117"/>
  <line x1="238" y1="317" x2="252" y2="317"/><line x1="238" y1="317" x2="238" y2="303"/>
  <line x1="462" y1="317" x2="448" y2="317"/><line x1="462" y1="317" x2="462" y2="303"/>
</g>
<text class="arc-text"><textPath href="#top-arc" startOffset="50%" text-anchor="middle">GEOSPATIAL</textPath></text>
<text class="arc-text"><textPath href="#bot-arc" startOffset="50%" text-anchor="middle">INTELLIGENCE</textPath></text>
</svg>
